name p13_grf_mean_speed_1.0
datacolumns 13
datarows 68
range 0.0000000000 0.6700000000
endheader
time	grf_x_l_mean	grf_x_l_var	grf_y_l_mean	grf_y_l_var	grf_z_l_mean	grf_z_l_var	grf_x_r_mean	grf_x_r_var	grf_y_r_mean	grf_y_r_var	grf_z_r_mean	grf_z_r_var
0.0000000000	103.6158889853	1.0000000000	931.2526211568	1.0000000000	0.0000000000	0.0000000000	11.2611601041	1.0000000000	10.8688571570	1.0000000000	0.0000000000	0.0000000000
0.0100000000	109.9827024239	1.0000000000	934.8084603419	1.0000000000	0.0000000000	0.0000000000	20.8626893242	1.0000000000	37.8707390981	1.0000000000	0.0000000000	0.0000000000
0.0200000000	116.7987969692	1.0000000000	931.9515913849	1.0000000000	0.0000000000	0.0000000000	28.6792159697	1.0000000000	79.7024395614	1.0000000000	0.0000000000	0.0000000000
0.0300000000	124.3567677903	1.0000000000	921.5600922722	1.0000000000	0.0000000000	0.0000000000	26.1911377073	1.0000000000	129.9843108179	1.0000000000	0.0000000000	0.0000000000
0.0400000000	131.6955747636	1.0000000000	902.5531866038	1.0000000000	0.0000000000	0.0000000000	11.8696765049	1.0000000000	183.5911365497	1.0000000000	0.0000000000	0.0000000000
0.0500000000	140.1072091020	1.0000000000	874.8874016647	1.0000000000	0.0000000000	0.0000000000	-6.0922177394	1.0000000000	241.9544957608	1.0000000000	0.0000000000	0.0000000000
0.0600000000	148.8779717424	1.0000000000	838.2715572905	1.0000000000	0.0000000000	0.0000000000	-24.0186103020	1.0000000000	305.7377157703	1.0000000000	0.0000000000	0.0000000000
0.0700000000	155.7686949215	1.0000000000	790.7336396339	1.0000000000	0.0000000000	0.0000000000	-42.4260672520	1.0000000000	371.2714938257	1.0000000000	0.0000000000	0.0000000000
0.0800000000	160.6857204036	1.0000000000	731.3599017704	1.0000000000	0.0000000000	0.0000000000	-59.5585069849	1.0000000000	435.7485531186	1.0000000000	0.0000000000	0.0000000000
0.0900000000	161.5019176599	1.0000000000	660.5063382517	1.0000000000	0.0000000000	0.0000000000	-75.7243419273	1.0000000000	497.0099816520	1.0000000000	0.0000000000	0.0000000000
0.1000000000	156.2922760547	1.0000000000	577.3025273921	1.0000000000	0.0000000000	0.0000000000	-90.4938101021	1.0000000000	549.0536961575	1.0000000000	0.0000000000	0.0000000000
0.1100000000	145.1105102984	1.0000000000	483.3139634410	1.0000000000	0.0000000000	0.0000000000	-100.9960934433	1.0000000000	587.6356132105	1.0000000000	0.0000000000	0.0000000000
0.1200000000	126.1712871739	1.0000000000	384.1914729239	1.0000000000	0.0000000000	0.0000000000	-109.1945177698	1.0000000000	617.0242645034	1.0000000000	0.0000000000	0.0000000000
0.1300000000	101.0403648808	1.0000000000	286.4486627755	1.0000000000	0.0000000000	0.0000000000	-116.1093088397	1.0000000000	644.0621555668	1.0000000000	0.0000000000	0.0000000000
0.1400000000	73.4776253920	1.0000000000	197.4262034851	1.0000000000	0.0000000000	0.0000000000	-120.1901851304	1.0000000000	672.5901113296	1.0000000000	0.0000000000	0.0000000000
0.1500000000	45.8138691300	1.0000000000	124.5241145624	1.0000000000	0.0000000000	0.0000000000	-122.5321556315	1.0000000000	705.7671981080	1.0000000000	0.0000000000	0.0000000000
0.1600000000	23.6698691655	1.0000000000	70.7984586371	1.0000000000	0.0000000000	0.0000000000	-123.0544612269	1.0000000000	744.5101532965	1.0000000000	0.0000000000	0.0000000000
0.1700000000	9.3944794526	1.0000000000	34.6312272928	1.0000000000	0.0000000000	0.0000000000	-121.1474044642	1.0000000000	785.8572430925	1.0000000000	0.0000000000	0.0000000000
0.1800000000	1.2397203485	1.0000000000	12.9948416819	1.0000000000	0.0000000000	0.0000000000	-117.9901086545	1.0000000000	826.1844531799	1.0000000000	0.0000000000	0.0000000000
0.1900000000	-1.4545310844	1.0000000000	2.1979083293	1.0000000000	0.0000000000	0.0000000000	-112.9739607902	1.0000000000	862.8813875742	1.0000000000	0.0000000000	0.0000000000
0.2000000000	0.0000000000	1.0000000000	0.0000000000	1.0000000000	0.0000000000	0.0000000000	-106.3426298116	1.0000000000	893.4077236175	1.0000000000	0.0000000000	0.0000000000
0.2100000000	0.0000000000	1.0000000000	0.0000000000	1.0000000000	0.0000000000	0.0000000000	-99.1861096087	1.0000000000	915.0780011045	1.0000000000	0.0000000000	0.0000000000
0.2200000000	0.0000000000	1.0000000000	0.0000000000	1.0000000000	0.0000000000	0.0000000000	-90.9514096613	1.0000000000	925.9469942729	1.0000000000	0.0000000000	0.0000000000
0.2300000000	0.0000000000	1.0000000000	0.0000000000	1.0000000000	0.0000000000	0.0000000000	-82.3430127911	1.0000000000	925.4002846550	1.0000000000	0.0000000000	0.0000000000
0.2400000000	1.2833387308	1.0000000000	0.3294934377	1.0000000000	0.0000000000	0.0000000000	-74.0812215134	1.0000000000	913.9763093099	1.0000000000	0.0000000000	0.0000000000
0.2500000000	1.8612213233	1.0000000000	0.8749776198	1.0000000000	0.0000000000	0.0000000000	-65.9695191376	1.0000000000	893.9213042672	1.0000000000	0.0000000000	0.0000000000
0.2600000000	1.6258140751	1.0000000000	0.9181003299	1.0000000000	0.0000000000	0.0000000000	-58.4382920724	1.0000000000	868.2519979126	1.0000000000	0.0000000000	0.0000000000
0.2700000000	1.1239043166	1.0000000000	0.5871129520	1.0000000000	0.0000000000	0.0000000000	-51.2933415987	1.0000000000	839.3631887438	1.0000000000	0.0000000000	0.0000000000
0.2800000000	1.1925553625	1.0000000000	0.3921134303	1.0000000000	0.0000000000	0.0000000000	-44.5976161497	1.0000000000	809.7488806652	1.0000000000	0.0000000000	0.0000000000
0.2900000000	1.0788479880	1.0000000000	0.2486618369	1.0000000000	0.0000000000	0.0000000000	-38.6796359659	1.0000000000	781.3709270008	1.0000000000	0.0000000000	0.0000000000
0.3000000000	0.0000000000	1.0000000000	0.0000000000	1.0000000000	0.0000000000	0.0000000000	-32.6730265238	1.0000000000	755.1094140916	1.0000000000	0.0000000000	0.0000000000
0.3100000000	0.0000000000	1.0000000000	0.0000000000	1.0000000000	0.0000000000	0.0000000000	-26.8632706986	1.0000000000	732.4640882920	1.0000000000	0.0000000000	0.0000000000
0.3200000000	0.0000000000	1.0000000000	0.0000000000	1.0000000000	0.0000000000	0.0000000000	-21.4983687890	1.0000000000	714.7799203387	1.0000000000	0.0000000000	0.0000000000
0.3300000000	0.0000000000	1.0000000000	0.0000000000	1.0000000000	0.0000000000	0.0000000000	-16.0350427937	1.0000000000	701.7038045540	1.0000000000	0.0000000000	0.0000000000
0.3400000000	0.0000000000	1.0000000000	0.0000000000	1.0000000000	0.0000000000	0.0000000000	-10.9375644544	1.0000000000	692.7163711710	1.0000000000	0.0000000000	0.0000000000
0.3500000000	0.0000000000	1.0000000000	0.0000000000	1.0000000000	0.0000000000	0.0000000000	-6.0849047967	1.0000000000	688.1006089742	1.0000000000	0.0000000000	0.0000000000
0.3600000000	0.0000000000	1.0000000000	0.0000000000	1.0000000000	0.0000000000	0.0000000000	-1.2149321831	1.0000000000	688.0805590497	1.0000000000	0.0000000000	0.0000000000
0.3700000000	0.0000000000	1.0000000000	0.0000000000	1.0000000000	0.0000000000	0.0000000000	3.2439052161	1.0000000000	692.3978801530	1.0000000000	0.0000000000	0.0000000000
0.3800000000	0.8420342841	1.0000000000	0.0089363007	1.0000000000	0.0000000000	0.0000000000	7.9522442243	1.0000000000	700.5024958157	1.0000000000	0.0000000000	0.0000000000
0.3900000000	0.6930325471	1.0000000000	0.1485413208	1.0000000000	0.0000000000	0.0000000000	13.0478235169	1.0000000000	712.2449939837	1.0000000000	0.0000000000	0.0000000000
0.4000000000	0.5913664733	1.0000000000	0.2783942004	1.0000000000	0.0000000000	0.0000000000	18.2332101643	1.0000000000	727.9645203923	1.0000000000	0.0000000000	0.0000000000
0.4100000000	0.5420432064	1.0000000000	0.4117078585	1.0000000000	0.0000000000	0.0000000000	24.4924046710	1.0000000000	747.1411133984	1.0000000000	0.0000000000	0.0000000000
0.4200000000	0.4026651820	1.0000000000	0.3604310324	1.0000000000	0.0000000000	0.0000000000	31.8582238464	1.0000000000	768.3589931933	1.0000000000	0.0000000000	0.0000000000
0.4300000000	0.0000000000	1.0000000000	0.0000000000	1.0000000000	0.0000000000	0.0000000000	40.1482248704	1.0000000000	790.9121873180	1.0000000000	0.0000000000	0.0000000000
0.4400000000	0.0000000000	1.0000000000	0.0000000000	1.0000000000	0.0000000000	0.0000000000	49.7401381012	1.0000000000	814.6508028159	1.0000000000	0.0000000000	0.0000000000
0.4500000000	0.0000000000	1.0000000000	0.0000000000	1.0000000000	0.0000000000	0.0000000000	59.8885990004	1.0000000000	838.6597755486	1.0000000000	0.0000000000	0.0000000000
0.4600000000	0.0000000000	1.0000000000	0.0000000000	1.0000000000	0.0000000000	0.0000000000	70.1026259956	1.0000000000	861.4256326275	1.0000000000	0.0000000000	0.0000000000
0.4700000000	0.0000000000	1.0000000000	0.0000000000	1.0000000000	0.0000000000	0.0000000000	80.2266659960	1.0000000000	881.6917170679	1.0000000000	0.0000000000	0.0000000000
0.4800000000	0.0000000000	1.0000000000	0.0000000000	1.0000000000	0.0000000000	0.0000000000	89.3584658188	1.0000000000	898.4874062888	1.0000000000	0.0000000000	0.0000000000
0.4900000000	7.1391360779	1.0000000000	3.3297906057	1.0000000000	0.0000000000	0.0000000000	97.5554289706	1.0000000000	910.6937891422	1.0000000000	0.0000000000	0.0000000000
0.5000000000	15.8995847539	1.0000000000	23.7274962612	1.0000000000	0.0000000000	0.0000000000	105.1148056741	1.0000000000	916.9355929659	1.0000000000	0.0000000000	0.0000000000
0.5100000000	26.1833617078	1.0000000000	60.1326244999	1.0000000000	0.0000000000	0.0000000000	111.9071376774	1.0000000000	916.1033562278	1.0000000000	0.0000000000	0.0000000000
0.5200000000	32.0192994853	1.0000000000	110.3294024985	1.0000000000	0.0000000000	0.0000000000	118.5346802534	1.0000000000	907.7947491510	1.0000000000	0.0000000000	0.0000000000
0.5300000000	26.0441149629	1.0000000000	166.6664945907	1.0000000000	0.0000000000	0.0000000000	124.8908955301	1.0000000000	891.4230360999	1.0000000000	0.0000000000	0.0000000000
0.5400000000	9.7874627006	1.0000000000	224.1701665372	1.0000000000	0.0000000000	0.0000000000	130.9149475901	1.0000000000	866.0740689701	1.0000000000	0.0000000000	0.0000000000
0.5500000000	-9.1711449356	1.0000000000	283.1406739719	1.0000000000	0.0000000000	0.0000000000	137.8855921188	1.0000000000	831.9879728686	1.0000000000	0.0000000000	0.0000000000
0.5600000000	-28.6008098548	1.0000000000	343.6389800434	1.0000000000	0.0000000000	0.0000000000	144.2148086463	1.0000000000	789.1236713895	1.0000000000	0.0000000000	0.0000000000
0.5700000000	-47.9744397954	1.0000000000	402.8141711887	1.0000000000	0.0000000000	0.0000000000	148.7166511811	1.0000000000	735.6920429808	1.0000000000	0.0000000000	0.0000000000
0.5800000000	-66.1017339967	1.0000000000	458.1378381367	1.0000000000	0.0000000000	0.0000000000	151.0412335047	1.0000000000	671.4110033899	1.0000000000	0.0000000000	0.0000000000
0.5900000000	-83.5211651966	1.0000000000	508.3213928330	1.0000000000	0.0000000000	0.0000000000	148.7252977241	1.0000000000	597.3078294311	1.0000000000	0.0000000000	0.0000000000
0.6000000000	-98.5091551995	1.0000000000	552.4868425368	1.0000000000	0.0000000000	0.0000000000	141.0085246816	1.0000000000	513.1557422872	1.0000000000	0.0000000000	0.0000000000
0.6100000000	-110.2827404568	1.0000000000	592.6080057009	1.0000000000	0.0000000000	0.0000000000	127.6724775703	1.0000000000	421.5063152462	1.0000000000	0.0000000000	0.0000000000
0.6200000000	-119.9947273507	1.0000000000	633.2984185869	1.0000000000	0.0000000000	0.0000000000	107.6928078527	1.0000000000	329.0070437043	1.0000000000	0.0000000000	0.0000000000
0.6300000000	-125.7123844043	1.0000000000	677.1524100078	1.0000000000	0.0000000000	0.0000000000	83.3912243250	1.0000000000	241.4631248036	1.0000000000	0.0000000000	0.0000000000
0.6400000000	-127.2011955388	1.0000000000	724.3224930292	1.0000000000	0.0000000000	0.0000000000	57.8635090902	1.0000000000	164.1875304995	1.0000000000	0.0000000000	0.0000000000
0.6500000000	-125.6663672945	1.0000000000	774.1547763883	1.0000000000	0.0000000000	0.0000000000	34.2678175596	1.0000000000	102.7095650940	1.0000000000	0.0000000000	0.0000000000
0.6600000000	-120.5768511029	1.0000000000	823.8364803246	1.0000000000	0.0000000000	0.0000000000	16.8324992324	1.0000000000	58.2188574399	1.0000000000	0.0000000000	0.0000000000
0.6700000000	-113.7283106572	1.0000000000	869.3473895519	1.0000000000	0.0000000000	0.0000000000	6.0162755992	1.0000000000	28.0770990194	1.0000000000	0.0000000000	0.0000000000
